# xmcd
#
# Track frame offsets:
# 150
# 22115
# 38440
# 57832
# 74575
# 89765
# 104825
# 119392
# 133852
# 151539
# 164569
# 184362
# 201638
# 216062
# 232231
# 247644
# 264200
#
# Disc length: 3724 seconds
#
#
# Revision: 4
# Processed by: cddbd v1.5.2PL0 Copyright (c) Steve Scherf et al.
# Submitted via: FreeRIP 2.96 
#
DISCID=fd0e8a11
DTITLE=Eduardo Costa - Tem Tudo a Ver
DYEAR=2009
DGENRE=Sertanejo
TTITLE0=Exemplo das Paixoes
TTITLE1=Nao Valeu Pra Voce
TTITLE2=Nao Vou Parar de Beber
TTITLE3=Feito Tatuagem
TTITLE4=Amores Imortais
TTITLE5=Fim de Amor
TTITLE6=Tem Tudo a Ver
TTITLE7=To Sem Nnguem
TTITLE8=Juro Que Te Esqueco
TTITLE9=A Melhor do Brasil
TTITLE10=Fiz Amor Com Uma Estranha
TTITLE11=Sou Seu Fa Numero Um
TTITLE12=Cansei de Ser Palhaco
TTITLE13=Da Pra Ver no Meu Olhar
TTITLE14=Ninguem e De Ninguem
TTITLE15=Sina
TTITLE16=Quem Foi Que Disse
EXTD=
EXTT0=
EXTT1=
EXTT2=
EXTT3=
EXTT4=
EXTT5=
EXTT6=
EXTT7=
EXTT8=
EXTT9=
EXTT10=
EXTT11=
EXTT12=
EXTT13=
EXTT14=
EXTT15=
EXTT16=
PLAYORDER=
